<?xml version="1.0" encoding="utf-8"?>
<!-- Generator: Adobe Illustrator 24.0.1, SVG Export Plug-In . SVG Version: 6.00 Build 0)  -->
<svg version="1.1" id="Capa_1" xmlns="http://www.w3.org/2000/svg" xmlns:xlink="http://www.w3.org/1999/xlink" x="0px" y="0px"
	 viewBox="0 0 14633 1190.7" style="background:#6d55b2;" xml:space="preserve">
<style type="text/css">
	.st0{fill:#0f0b0e;}
	.st1{fill:#BFA881;}
</style>
<g>
	<path class="st0" d="M0,0v925.7c1447.9-335.4,4324.2-720.1,9451.9-430.2c0,0,2888.4,348.3,5176.3-490V0H0z"/>
	<path class="st1" d="M14633,953.5c-127.3-52.5-909.4-364.3-2029.2-584c-716.6-140.6-1429.2-216.4-2118.1-225.5
		c-861.2-11.4-1687.5,82.2-2455.7,278.2c-13.8,3.1-1395.3,314.9-3070.9,534.7C3422.3,1158.4,1319,1321.2,0,957.6v16.5
		c524.2,143.9,1208.8,216.6,2039.1,216.6c88.6,0,179-0.8,271-2.5c774.5-14,1666.5-86.5,2651.1-215.7
		c1676.3-219.9,3058.5-531.8,3072.5-535c1737.2-443,3442.2-273.1,4566.6-52.6c1138.5,223.3,1927.3,541.9,2032.7,585.7V953.5z"/>
</g>
</svg>
