<?xml version="1.0" encoding="utf-8"?>
<!-- Generator: Adobe Illustrator 25.4.2, SVG Export Plug-In . SVG Version: 6.00 Build 0)  -->
<svg version="1.1" id="Capa_1" xmlns="http://www.w3.org/2000/svg" xmlns:xlink="http://www.w3.org/1999/xlink" x="0px" y="0px"
	 viewBox="0 0 621.08 447.72" style="enable-background:new 0 0 621.08 447.72;" xml:space="preserve">
<style type="text/css">
	.st0{fill:none;stroke:#BFA880;stroke-width:4;stroke-linecap:round;stroke-linejoin:round;stroke-miterlimit:10;}
</style>
<g>
	<path class="st0" d="M297.31,175.88c-25.03-45.44-56.17-90.97-96.28-123.86C160.91,19.13,109.23-2.04,57.57,2.65
		C39.53,4.29,20.24,10.06,10.01,25c-8.8,12.84-8.99,29.67-6.93,45.1c2.06,15.43,6.04,30.87,4.41,46.35
		c-0.56,5.29-1.7,10.95,0.74,15.67c2.11,4.07,6.38,6.43,9.91,9.35c15.19,12.61,16.04,35.32,14.57,55.01
		c-1.47,19.69-3.43,41.54,8.66,57.14c8.91,11.5,24,16.92,38.54,17.12c14.54,0.2,28.74-4.2,42.37-9.27
		c29.42-10.95,57.57-25.27,87.44-34.93c26.55-8.58,55.21-13.34,82.46-8.26"/>
	<path class="st0" d="M90.4,3.03C72.38,4.04,53.57,10.64,43.73,25c-8.8,12.84-8.99,29.67-6.93,45.1
		c2.06,15.43,6.04,30.87,4.41,46.35c-0.56,5.29-1.7,10.95,0.74,15.67c2.11,4.07,6.38,6.43,9.91,9.35
		c15.19,12.61,16.04,35.32,14.57,55.01c-1.47,19.69-3.43,41.54,8.66,57.14c5.81,7.49,14.24,12.41,23.43,14.98"/>
	<path class="st0" d="M98.28,269.51c-4.16,14.66-7.21,29.77-7.01,45c0.2,15.23,3.8,30.67,12.1,43.45
		c8.28,12.74,20.67,22.16,30.77,33.51c7.61,8.56,14.11,19.21,15.45,30.3c0.51,4.17,4.76,6.36,8.69,4.86
		c6.92-2.63,15.11-2.58,22.42-0.71c10.96,2.8,20.71,8.94,30.99,13.66c10.28,4.72,21.97,8.08,32.83,4.89
		c10.35-3.03,18.32-11.71,22.84-21.5c4.52-9.79,6.01-20.68,7-31.42c2.03-22,2.17-44.14,4.54-66.1c1.77-16.39,5.29-33.05,11.11-48.41
		"/>
	<path class="st0" d="M112.23,265.01c-1.52,8.32-2.42,16.73-2.31,25.18c0.2,15.23,3.8,30.67,12.1,43.45
		c8.28,12.74,20.67,22.16,30.77,33.51c7.61,8.55,14.11,19.21,15.45,30.3c0.51,4.17,4.76,6.36,8.69,4.86
		c6.92-2.63,15.11-2.58,22.42-0.71c10.96,2.8,20.71,8.94,30.99,13.66c10.28,4.72,21.97,8.08,32.83,4.89
		c2.25-0.66,4.38-1.58,6.4-2.73"/>
	<path class="st0" d="M298.55,164.68c-5.42,48.91-10.86,98.13-7.58,147.22c0.53,7.96,1.31,16.01,4.03,23.52
		c2.72,7.52,7.59,14.54,14.66,18.44c0.11-2.15,1.58-2.15,1.68,0c7.07-3.9,11.94-10.92,14.66-18.44c2.72-7.52,3.5-15.56,4.03-23.52
		c3.28-49.1-2.16-98.31-7.58-147.22"/>
	<path class="st0" d="M310.88,133.85c-6.65,0-12.54,2.32-15.95,7.47c-3.41,5.15-3.67,12.21-0.64,17.6c1.59,2.82,4.04,5.12,6.9,6.63
		c3.04,1.6,6.44,1.96,9.82,1.98c3.45,0.02,6.79-0.45,9.84-2.13c2.74-1.51,5.08-3.75,6.62-6.48c3.02-5.38,2.77-12.45-0.64-17.6
		C323.42,136.17,317.53,133.85,310.88,133.85"/>
	<path class="st0" d="M299.22,137.06c-13.27-29.69-32.53-56.68-56.28-78.9"/>
	<path class="st0" d="M296.09,187.17c-15.9-22.52-34.24-46.58-52.75-67.01c-18.51-20.43-39.76-38.74-64.35-51.21
		c-14.17-7.18-29.83-12.43-45.69-11.43c-7.42,0.47-15.15,2.54-20.3,7.9c-6.26,6.51-7.39,16.42-6.58,25.41
		c0.81,8.99,3.22,17.89,2.7,26.91c-0.47,8.23-3.06,17.58,2.18,23.95c3.95,4.81,10.97,5.84,15.66,9.93c8.35,7.28,6.5,21,12.51,30.3
		c4.95,7.66,14.59,11.12,23.71,11.34c9.12,0.22,18.05-2.24,27.02-3.9c35.31-6.52,74.03,0.74,103.53,21.21"/>
	<path class="st0" d="M290.93,230.9c-37.85,7.84-75.35,20.14-107.42,41.72c-7.83,5.27-15.49,11.28-20.27,19.41
		c-4.78,8.14-6.16,18.84-1.32,26.93c3.65,6.1,10.12,9.82,15.6,14.35c5.48,4.53,10.46,11.13,9.17,18.13
		c9.58-5.67,21.79-2.1,32.81-3.69c15.2-2.2,27.15-14.13,35.88-26.77c9.16-13.26,16.14-28.04,20.56-43.54
		c3.13-10.99,5.6-23.31,14.66-30.26"/>
	<path class="st0" d="M323.77,175.88c25.03-45.44,56.17-90.97,96.28-123.86s91.8-54.06,143.46-49.37
		c18.04,1.64,37.33,7.41,47.56,22.35c8.8,12.84,8.99,29.67,6.93,45.1s-6.04,30.87-4.41,46.35c0.56,5.29,1.7,10.95-0.74,15.67
		c-2.11,4.07-6.38,6.43-9.91,9.35c-15.19,12.61-16.04,35.32-14.57,55.01c1.47,19.69,3.43,41.54-8.66,57.14
		c-8.91,11.5-24,16.92-38.54,17.12c-14.54,0.2-28.74-4.2-42.37-9.27c-29.42-10.95-57.57-25.27-87.44-34.93
		c-26.55-8.58-55.21-13.34-82.46-8.26"/>
	<path class="st0" d="M530.68,3.03c18.02,1.01,36.83,7.61,46.67,21.97c8.8,12.84,8.99,29.67,6.93,45.1
		c-2.06,15.43-6.04,30.87-4.41,46.35c0.56,5.29,1.7,10.95-0.74,15.67c-2.11,4.07-6.38,6.43-9.91,9.35
		c-15.19,12.61-16.04,35.32-14.57,55.01c1.47,19.69,3.43,41.54-8.66,57.14c-5.81,7.49-14.24,12.41-23.43,14.98"/>
	<path class="st0" d="M522.8,269.51c4.16,14.66,7.21,29.77,7.01,45c-0.2,15.23-3.8,30.67-12.1,43.45
		c-8.28,12.74-20.67,22.16-30.77,33.51c-7.61,8.56-14.11,19.21-15.45,30.3c-0.51,4.17-4.77,6.36-8.69,4.86
		c-6.92-2.63-15.11-2.58-22.42-0.71c-10.96,2.8-20.71,8.94-30.99,13.66c-10.28,4.72-21.97,8.08-32.83,4.89
		c-10.35-3.03-18.33-11.71-22.84-21.5c-4.52-9.79-6.01-20.68-7-31.42c-2.03-22-2.17-44.14-4.54-66.1
		c-1.77-16.39-5.29-33.05-11.11-48.41"/>
	<path class="st0" d="M508.85,265.01c1.52,8.32,2.42,16.73,2.31,25.18c-0.2,15.23-3.8,30.67-12.1,43.45
		c-8.28,12.74-20.67,22.16-30.77,33.51c-7.61,8.55-14.11,19.21-15.45,30.3c-0.51,4.17-4.77,6.36-8.69,4.86
		c-6.92-2.63-15.11-2.58-22.42-0.71c-10.96,2.8-20.71,8.94-30.99,13.66c-10.28,4.72-21.97,8.08-32.83,4.89
		c-2.25-0.66-4.38-1.58-6.4-2.73"/>
	<path class="st0" d="M321.86,137.06c13.27-29.69,32.53-56.68,56.28-78.9"/>
	<path class="st0" d="M324.99,187.17c15.9-22.52,34.24-46.58,52.75-67.01c18.51-20.43,39.76-38.74,64.35-51.21
		c14.17-7.18,29.83-12.43,45.69-11.43c7.42,0.47,15.15,2.54,20.3,7.9c6.26,6.51,7.39,16.42,6.58,25.41
		c-0.81,8.99-3.22,17.89-2.7,26.91c0.47,8.23,3.06,17.58-2.18,23.95c-3.95,4.81-10.97,5.84-15.66,9.93c-8.35,7.28-6.5,21-12.51,30.3
		c-4.95,7.66-14.59,11.12-23.71,11.34c-9.12,0.22-18.05-2.24-27.02-3.9c-35.31-6.52-74.03,0.74-103.53,21.21"/>
	<path class="st0" d="M330.14,230.9c37.85,7.84,75.35,20.14,107.42,41.72c7.83,5.27,15.49,11.28,20.27,19.41
		c4.78,8.14,6.16,18.84,1.32,26.93c-3.65,6.1-10.12,9.82-15.6,14.35c-5.48,4.53-10.46,11.13-9.17,18.13
		c-9.58-5.67-21.79-2.1-32.81-3.69c-15.2-2.2-27.15-14.13-35.88-26.77c-9.16-13.26-16.14-28.04-20.56-43.54
		c-3.13-10.99-5.6-23.31-14.66-30.26"/>
</g>
</svg>
