<?xml version="1.0" encoding="utf-8"?>
<!-- Generator: Adobe Illustrator 25.4.2, SVG Export Plug-In . SVG Version: 6.00 Build 0)  -->
<svg version="1.1" id="Capa_1" xmlns="http://www.w3.org/2000/svg" xmlns:xlink="http://www.w3.org/1999/xlink" x="0px" y="0px"
	 viewBox="0 0 669.89 428.95" style="enable-background:new 0 0 669.89 428.95;" xml:space="preserve">
<style type="text/css">
	.st0{fill:none;stroke:#fff;stroke-width:8;stroke-linecap:round;stroke-linejoin:round;stroke-miterlimit:10;}
</style>
<g>
	<path class="st0" d="M312.58,135.06c-24.4-34.7-57.01-64.18-95.71-81.56c-38.7-17.38-83.63-22.07-124.14-9.49
		C52.21,56.59,16.91,87.22,2,126.93c12.62-12.49,34.18-10,49.42-0.89c15.24,9.11,25.57,24.41,35.08,39.41
		c9.51,15,19.08,30.61,33.52,40.94c15.16,10.85,34.48,14.8,53.11,13.9c18.63-0.91,36.74-6.34,54.21-12.85
		c-21.59,17.84-42.84,40.19-52.64,66.42c-6.23,16.67-8.16,34.58-10.22,52.25c-2.06,17.67-4.36,35.58-11.24,51.99
		c-6.88,16.41-19,31.4-35.59,37.83c32.98,13.06,77.21,14.18,111.5,5.1c26.03-6.89,63.21-26.84,86.08-51.57"/>
	<path class="st0" d="M318.12,124.89c-0.24,0.4-0.48,0.81-0.71,1.23c-8.94,16.33-14.82,36.82-18.5,57.27
		c-12.66,70.39-1.86,149,26.18,209.4c4.73,10.19,15.01,10.19,19.74,0c28.04-60.39,38.83-139.01,26.18-209.4
		c-3.68-20.44-9.56-40.93-18.5-57.27c-0.22-0.39-0.44-0.78-0.66-1.15"/>
	<path class="st0" d="M334.96,136.87c-10.67-3.29-19.78-12.55-20.61-24.03c-0.09-1.23-0.08-2.47,0.04-3.7
		c0.42-4.42,2.15-8.68,5.01-12.08c3.89-4.63,9.6-7.62,15.58-8.5"/>
	<path class="st0" d="M334.99,136.87c10.67-3.29,19.78-12.55,20.61-24.03c0.09-1.23,0.08-2.47-0.04-3.7
		c-0.42-4.42-2.15-8.68-5.01-12.08c-3.89-4.63-9.6-7.62-15.58-8.5"/>
	<path class="st0" d="M36.45,119.87c0,0,92.61-155.2,270.61,30.34"/>
	<path class="st0" d="M141.49,397.93c0,0,96.92,29.03,165.57-53.92"/>
	<path class="st0" d="M262.93,174.99c-22.75,5.3-45.76,9.45-68.93,12.42c-17.59,2.26-36.51,3.6-52.03-4.98
		c-14.04-7.75-22.77-22.22-31.43-35.71c-8.67-13.49-18.88-27.4-34-32.72c31.03-21.72,71.8-27.91,107.91-16.51
		S250,139.39,262.93,174.99z"/>
	<path class="st0" d="M267.87,220.98c-36.5,11.09-65.75,43.28-73.31,80.67c-2.81,13.89-2.82,28.18-4.24,42.28
		c-1.43,14.1-4.46,28.49-12.5,40.16c17.46,0.8,37.13-0.52,52.71-8.44c16.96-8.63,29.85-24.16,37.39-41.63
		c7.54-17.47,10.05-36.8,9.64-55.83C277.13,259.16,271.41,239.68,267.87,220.98z"/>
	<path class="st0" d="M325.18,92.17C290.93,44.23,238.34,9.08,176.46,2"/>
	<path class="st0" d="M357.3,135.06c24.4-34.7,57.01-64.18,95.71-81.56c38.7-17.38,83.63-22.07,124.14-9.49
		c40.51,12.58,75.81,43.21,90.73,82.92c-12.62-12.49-34.18-10-49.42-0.89c-15.24,9.11-25.57,24.41-35.08,39.41
		c-9.51,15-19.08,30.61-33.52,40.94c-15.16,10.85-34.48,14.8-53.11,13.9c-18.63-0.91-36.74-6.34-54.21-12.85
		c21.59,17.84,42.84,40.19,52.64,66.42c6.23,16.67,8.16,34.58,10.22,52.25c2.06,17.67,4.36,35.58,11.24,51.99
		c6.88,16.41,19,31.4,35.59,37.83c-32.98,13.06-77.21,14.18-111.5,5.1c-26.03-6.89-63.21-26.84-86.08-51.57"/>
	<path class="st0" d="M633.44,119.87c0,0-92.61-155.2-270.61,30.34"/>
	<path class="st0" d="M528.39,397.93c0,0-96.92,29.03-165.57-53.92"/>
	<path class="st0" d="M406.96,174.99c22.75,5.3,45.76,9.45,68.93,12.42c17.59,2.26,36.51,3.6,52.03-4.98
		c14.04-7.75,22.77-22.22,31.43-35.71c8.67-13.49,18.88-27.4,34-32.72c-31.03-21.72-71.8-27.91-107.91-16.51
		S419.89,139.39,406.96,174.99z"/>
	<path class="st0" d="M402.02,220.98c36.5,11.09,65.75,43.28,73.31,80.67c2.81,13.89,2.82,28.18,4.24,42.28
		c1.43,14.1,4.46,28.49,12.5,40.16c-17.46,0.8-37.13-0.52-52.71-8.44c-16.96-8.63-29.85-24.16-37.39-41.63
		c-7.54-17.47-10.05-36.8-9.64-55.83C392.75,259.16,398.47,239.68,402.02,220.98z"/>
	<path class="st0" d="M344.71,92.17C378.96,44.23,431.55,9.08,493.43,2"/>
</g>
</svg>
