<?xml version="1.0" encoding="utf-8"?>
<!-- Generator: Adobe Illustrator 25.4.2, SVG Export Plug-In . SVG Version: 6.00 Build 0)  -->
<svg version="1.1" id="Capa_1" xmlns="http://www.w3.org/2000/svg" xmlns:xlink="http://www.w3.org/1999/xlink" x="0px" y="0px"
	 viewBox="0 0 629.02 520.56" style="enable-background:new 0 0 629.02 520.56;" xml:space="preserve">
<style type="text/css">
	.st0{fill:none;stroke:#BFA880;stroke-width:4;stroke-linecap:round;stroke-linejoin:round;stroke-miterlimit:10;}
</style>
<g>
	<path class="st0" d="M336.35,208.8c-1.19-11.22-2.88-22.52-6.52-32.31c-3.47-9.35-9.06-18.65-15.65-21.18
		c-6.59,2.53-12.17,11.83-15.65,21.18c-3.64,9.79-5.32,21.09-6.52,32.31c-4.99,46.98-1.52,97.23,12.07,139.28
		c5.55,17.18,14.64,17.18,20.19,0C337.86,306.03,341.34,255.79,336.35,208.8z"/>
	<path class="st0" d="M303.12,164.49c-1.79-2.7-2.87-6.31-2.93-9.97c-0.07-4.57,1.45-9.14,4-12.05c2.56-2.9,6.73-4.88,9.99-4.88"/>
	<path class="st0" d="M325.25,164.5c1.79-2.7,2.88-6.31,2.93-9.98c0.07-4.57-1.45-9.14-4-12.05c-2.56-2.9-6.73-4.88-9.99-4.88"/>
	<path class="st0" d="M301.62,168.34c-32.46-43.89-68.1-86.32-112.54-118.04C144.65,18.58,90.33-1.82,35.91,2.6
		C23.14,3.64,8.43,7.57,3.55,19.42c-4.3,10.45,1.11,22.21,7.02,31.85c10.01,16.32,21.89,31.68,29.07,49.43
		c10.96,27.08,10.07,57.23,13,86.29c2.93,29.07,11.37,60.17,34.78,77.64c19.26,14.37,44.93,16.57,68.93,15.28
		c48.85-2.62,93.79-17.67,133.51-42.1"/>
	<path class="st0" d="M65.94,2.6C53.17,3.64,38.46,7.57,33.58,19.42c-4.3,10.45,1.11,22.21,7.02,31.85
		c10.01,16.32,21.89,31.68,29.07,49.43c10.96,27.08,10.07,57.23,13,86.29c2.93,29.07,11.37,60.17,34.78,77.64
		c11.47,8.56,31.64,13.05,45.95,14.81"/>
	<path class="st0" d="M128.09,279.36c-21.23,36.62-19.9,82.46,0.73,117.47c12.85,21.81,31.78,38.97,52.78,53.44
		c4.09,2.82,6.64,7.41,6.53,12.37c-0.14,5.86,0.28,11.81,0.76,17.62c0.51,6.14,1.06,12.31,2.7,18.24
		c1.63,5.94,4.42,11.68,8.84,15.96c2.7,2.61,6.41,4.73,10.07,3.9c3.49-0.79,5.95-4.09,6.85-7.56c0.9-3.46,0.54-7.11,0.27-10.68
		c-0.34-4.48-0.51-8.96-0.53-13.45c-0.02-6.69,6.72-11.2,12.99-8.87c2.14,0.79,4.31,1.49,6.53,2.06c9.16,2.35,19.22,2.37,27.74-1.74
		c12.02-5.8,19.09-18.92,21.37-32.08c2.28-13.15,0.56-26.62-0.56-39.92c-3.1-37.03,1.03-74.76,7.42-111.37"/>
	<path class="st0" d="M289.01,239.15c-17.31,11.34-34.67,22.72-50.25,36.33s-29.42,29.61-38.22,48.33
		c-8.79,18.72-12.25,40.38-7.12,60.42c2.44,9.55,7.95,19.6,17.49,22.03c6.42,1.64,13.4-0.71,18.49-4.94
		c5.1-4.23,8.53-10.14,11.11-16.24c5.61-13.3,7.54-27.8,10.94-41.83c6.71-27.75,20.9-54.94,38.41-77.5"/>
	<path class="st0" d="M295.5,186.73c-22.99-29.35-48.4-60.58-76.85-84.68c-28.45-24.1-62.71-42.75-99.77-46.81
		c-6.95-0.76-14.35-0.92-20.5,2.41C87.7,63.43,84.7,78.39,89.29,89.64c4.59,11.24,14.86,19.18,25.58,24.89
		c7.37,3.93,15.16,7.08,22.21,11.55c7.05,4.47,13.47,10.54,16.35,18.37c3.51,9.56,1.31,20.12-0.27,30.18
		c-1.58,10.06-2.26,21.22,3.61,29.54c4.31,6.1,11.56,9.6,18.9,10.93c7.35,1.34,14.89,0.75,22.33,0.16
		c31.22-2.47,62.44-4.93,93.66-7.4"/>
	<path class="st0" d="M305.46,141.22c-14.54-30.55-35.08-58.44-59.33-82.18"/>
	<path class="st0" d="M163.06,280.06c-10.05,10.5-16.17,24.4-18.59,38.73c-2.42,14.33-1.31,29.1,1.78,43.31
		c4.94,22.75,15.77,45.37,35.01,58.47c8.8,6,19.1,9.84,27.02,16.96c5.76,5.19,10.11,11.99,16.63,16.18
		c10.48,6.73,24.77,5.14,35.45-1.27c10.68-6.41,20.11-16.21,26.32-27.01"/>
	<path class="st0" d="M223.68,134.8c-12.07-10.61-25.41-20.56-40.99-24.51c-5.4-1.37-11.79-1.75-15.89,2.03
		c-2.44,2.25-3.6,5.69-3.48,9.02c0.12,3.32,1.43,6.52,3.28,9.28c5.8,8.65,16.25,12.8,24.02,19.74c3.89,3.47,7.31,8.46,6.18,13.55
		c-0.66,2.98-2.77,5.39-4.34,8.01c-2.48,4.13-3.53,9.77-0.58,13.59c2.33,3.01,6.37,3.97,10.1,4.74c20.7,4.28,41.87,8.63,63.13,6.88
		c3.49-0.29,9.94,0.04,11.55-4.01c1.56-3.92-3.96-7.95-6.22-10.5c-7-7.86-14.06-15.66-21.34-23.25
		C240.95,150.85,232.53,142.58,223.68,134.8z"/>
	<path class="st0" d="M215.99,340.64c-3.7,8.23-6.76,16.87-7.56,25.86c-0.28,3.09-0.27,6.3,0.83,9.2c1.1,2.9,3.49,5.47,6.54,6.07
		c3.47,0.68,7.03-1.33,9.21-4.12c2.17-2.79,3.25-6.27,4.29-9.65c6.65-21.51,13.93-42.82,21.85-63.89
		c1.95-5.19,4.54-10.42,6.05-15.75c1.88-6.67-3.13-1.04-5.4,1.16c-7.09,6.91-13.57,14.45-19.33,22.51
		C226.05,320.99,220.52,330.59,215.99,340.64z"/>
	<path class="st0" d="M327.4,168.34c32.46-43.89,68.1-86.32,112.54-118.04C484.37,18.58,538.69-1.82,593.1,2.6
		c12.78,1.04,27.48,4.97,32.36,16.82c4.31,10.45-1.11,22.21-7.02,31.85c-10.01,16.32-21.89,31.68-29.07,49.43
		c-10.96,27.08-10.07,57.23-13,86.29c-2.93,29.07-11.37,60.17-34.78,77.64c-19.26,14.37-44.93,16.57-68.93,15.28
		c-48.85-2.62-93.79-17.67-133.51-42.1"/>
	<path class="st0" d="M563.07,2.6c12.78,1.04,27.48,4.97,32.36,16.82c4.3,10.45-1.11,22.21-7.02,31.85
		c-10.01,16.32-21.89,31.68-29.07,49.43c-10.96,27.08-10.07,57.23-13,86.29c-2.93,29.07-11.37,60.17-34.78,77.64
		c-11.47,8.56-31.64,13.05-45.95,14.81"/>
	<path class="st0" d="M500.93,279.36c21.23,36.62,19.9,82.46-0.73,117.47c-12.85,21.81-31.78,38.97-52.78,53.44
		c-4.09,2.82-6.64,7.41-6.53,12.37c0.14,5.86-0.28,11.81-0.76,17.62c-0.51,6.14-1.06,12.31-2.7,18.24
		c-1.64,5.94-4.42,11.68-8.84,15.96c-2.7,2.61-6.41,4.73-10.07,3.9c-3.49-0.79-5.95-4.09-6.85-7.56c-0.9-3.46-0.54-7.11-0.27-10.68
		c0.34-4.48,0.51-8.96,0.52-13.45c0.03-6.69-6.72-11.2-12.99-8.87c-2.14,0.79-4.31,1.49-6.53,2.06c-9.16,2.35-19.22,2.37-27.74-1.74
		c-12.02-5.8-19.09-18.92-21.37-32.08c-2.28-13.15-0.56-26.62,0.56-39.92c3.1-37.03-1.03-74.76-7.43-111.37"/>
	<path class="st0" d="M340.01,239.15c17.3,11.34,34.67,22.72,50.25,36.33s29.42,29.61,38.22,48.33
		c8.79,18.72,12.25,40.38,7.12,60.42c-2.44,9.55-7.95,19.6-17.5,22.03c-6.42,1.64-13.4-0.71-18.49-4.94
		c-5.1-4.23-8.53-10.14-11.11-16.24c-5.61-13.3-7.54-27.8-10.94-41.83c-6.71-27.75-20.9-54.94-38.41-77.5"/>
	<path class="st0" d="M333.52,186.73c22.99-29.35,48.4-60.58,76.85-84.68c28.45-24.1,62.71-42.75,99.77-46.81
		c6.95-0.76,14.35-0.92,20.5,2.41c10.68,5.78,13.68,20.75,9.09,31.99c-4.59,11.24-14.86,19.18-25.58,24.89
		c-7.37,3.93-15.16,7.08-22.21,11.55c-7.05,4.47-13.47,10.54-16.35,18.37c-3.51,9.56-1.31,20.12,0.27,30.18
		c1.58,10.06,2.26,21.22-3.61,29.54c-4.31,6.1-11.56,9.6-18.9,10.93c-7.35,1.34-14.89,0.75-22.33,0.16
		c-31.22-2.47-62.44-4.93-93.66-7.4"/>
	<path class="st0" d="M323.56,141.22c14.54-30.55,35.08-58.44,59.32-82.18"/>
	<path class="st0" d="M465.96,280.06c10.05,10.5,16.17,24.4,18.59,38.73c2.42,14.33,1.31,29.1-1.78,43.31
		c-4.94,22.75-15.77,45.37-35.01,58.47c-8.8,6-19.1,9.84-27.02,16.96c-5.76,5.19-10.11,11.99-16.63,16.18
		c-10.48,6.73-24.77,5.14-35.45-1.27c-10.68-6.41-20.11-16.21-26.32-27.01"/>
	<path class="st0" d="M405.34,134.8c12.07-10.61,25.41-20.56,40.99-24.51c5.4-1.37,11.79-1.75,15.89,2.03
		c2.44,2.25,3.6,5.69,3.48,9.02s-1.43,6.52-3.28,9.28c-5.8,8.65-16.25,12.8-24.02,19.74c-3.89,3.47-7.31,8.46-6.18,13.55
		c0.66,2.98,2.77,5.39,4.34,8.01c2.48,4.13,3.53,9.77,0.58,13.59c-2.33,3.01-6.37,3.97-10.1,4.74c-20.7,4.28-41.87,8.63-63.13,6.88
		c-3.49-0.29-9.95,0.04-11.55-4.01c-1.56-3.92,3.96-7.95,6.22-10.5c7-7.86,14.06-15.66,21.34-23.25
		C388.07,150.85,396.49,142.58,405.34,134.8z"/>
	<path class="st0" d="M413.02,340.64c3.7,8.23,6.76,16.87,7.56,25.86c0.28,3.09,0.27,6.3-0.83,9.2c-1.1,2.9-3.49,5.47-6.54,6.07
		c-3.47,0.68-7.03-1.33-9.21-4.12s-3.25-6.27-4.29-9.65c-6.65-21.51-13.93-42.82-21.85-63.89c-1.95-5.19-4.54-10.42-6.05-15.75
		c-1.88-6.67,3.13-1.04,5.4,1.16c7.09,6.91,13.57,14.45,19.33,22.51C402.97,320.99,408.5,330.59,413.02,340.64z"/>
</g>
</svg>
