<?xml version="1.0" encoding="utf-8"?>
<!-- Generator: Adobe Illustrator 25.4.2, SVG Export Plug-In . SVG Version: 6.00 Build 0)  -->
<svg version="1.1" id="Capa_1" xmlns="http://www.w3.org/2000/svg" xmlns:xlink="http://www.w3.org/1999/xlink" x="0px" y="0px"
	 viewBox="0 0 811.95 418.15" style="enable-background:new 0 0 811.95 418.15;" xml:space="preserve">
<style type="text/css">
	.st0{fill:none;stroke:#fff;stroke-width:6;stroke-linecap:round;stroke-miterlimit:10;}
</style>
<g>
	<path class="st0" d="M396.21,281.96c-21.58,47.97-52.12,96.99-52.12,96.99c-47.47,55.61-119.75,29.98-119.75,29.98
		c-70.43-22.97-98.39-79.92-98.39-79.92c-30.5-48.82,18.26-82.92,18.26-82.92c-34.2-4.77-88.36-71.12-88.36-71.12
		C-6.45,105.18,2.44,50.26,2.44,50.26S-5.58,3.72,95.64,16.71c0,0,58.58,0.29,181.04,70.8c0,0,78.97,48.4,115.64,102.95"/>
	<path class="st0" d="M391.73,207.83c0,0-71.4-26.84-128.7-43.32c0,0-87.01-95.83-170.58-26.11"/>
	<path class="st0" d="M133.12,203.66c0,0,56.08-26.14,128.13-38.21"/>
	<path class="st0" d="M247.35,215.96c0,0,34.79-12.3,67.38,2.83c0,0,24.45,11.68,51.14-1.37c0,0,18.97-10.22,26.2-7.2"/>
	<path class="st0" d="M376.59,239.22c0,0-95.52,4.86-194.8,124.69"/>
	<path class="st0" d="M283.82,297.45c0,0-43.13,47.9-69.22,94.16"/>
	<path class="st0" d="M328.4,280.04c0,0-36.15,36.56-70.49,123.35"/>
	<path class="st0" d="M379.35,243.21c0,0-47.42,33.62-80.23,155.85"/>
	<path class="st0" d="M385.36,252.98c0,0-39.08,73.42-52.48,126.62"/>
	<path class="st0" d="M174.64,241.06c0,0,60.66-21.29,133.71-2.85c0,0,40.17,12.29,75.52-18.42"/>
	<path class="st0" d="M154.01,341.97c0,0,63.11-59.49,123.89-74.49"/>
	<path class="st0" d="M45.92,47.23c0,0,79.47-23.87,200.09,44.43C344.48,147.42,392,206.33,392,206.33"/>
	<path class="st0" d="M51.9,30.07c0,0,38.18,1.56,86.07,18.65"/>
	<path class="st0" d="M121.71,68.31c0,0,59.52-9.6,128.4,26.42"/>
	<path class="st0" d="M422.55,165.91c0,0-2.34-31.58-14.95,1.13c-13.78-32.23-14.98-0.59-14.98-0.59
		c-4.17,105.11,10.78,125.26,10.78,125.26c-11.51,126.85,6.19,125.13,8.68,124.29c2.52,0.75,20.27,1.83,4.2-124.52
		C416.28,291.47,430.5,270.79,422.55,165.91z"/>
	<path class="st0" d="M242.18,13.18c0,0,123.06,53.89,155.13,139.94"/>
	<path class="st0" d="M424,281.46c23.29,47.16,55.57,95.05,55.57,95.05c49.44,53.87,120.75,25.66,120.75,25.66
		c69.56-25.49,95.45-83.41,95.45-83.41c28.73-49.89-21.23-82.21-21.23-82.21c34-6,85.74-74.26,85.74-74.26
		c59.75-71.99,48.89-126.56,48.89-126.56s6.34-46.79-94.35-30.17c0,0-58.53,2.4-178.37,77.27c0,0-77.18,51.21-111.86,107.04"/>
	<path class="st0" d="M425.8,207.22c0,0,70.39-29.39,127.06-47.92c0,0,83.5-98.9,169.53-32.23"/>
	<path class="st0" d="M684.1,193.74c0,0-56.99-24.11-129.42-33.58"/>
	<path class="st0" d="M570.38,210.15c0,0-35.21-11.04-67.23,5.25c0,0-24.01,12.55-51.16,0.47c0,0-19.32-9.53-26.44-6.26"/>
	<path class="st0" d="M442.07,238.05c0,0,95.63,1.42,199.16,117.61"/>
	<path class="st0" d="M536.86,292.89c0,0,44.82,46.32,72.57,91.61"/>
	<path class="st0" d="M491.69,277.1c0,0,37.44,35.23,74.89,120.74"/>
	<path class="st0" d="M439.45,242.13c0,0,48.6,31.89,85.79,152.86"/>
	<path class="st0" d="M433.79,252.11c0,0,41.69,71.96,57,124.65"/>
	<path class="st0" d="M643.95,232.62c0,0-61.39-19.09-133.72,1.96c0,0-39.7,13.73-76.14-15.69"/>
	<path class="st0" d="M668.19,332.72c0,0-65.21-57.18-126.49-69.99"/>
	<path class="st0" d="M765.61,34.28c0,0-80.27-21-198.36,51.6c-96.4,59.26-141.77,119.85-141.77,119.85"/>
	<path class="st0" d="M759.02,17.34c0,0-38.1,2.93-85.34,21.73"/>
	<path class="st0" d="M690.63,58.07c0,0-59.83-7.45-127.36,31.02"/>
	<path class="st0" d="M568.25,7.31c0,0-121.04,58.28-149.99,145.43"/>
</g>
</svg>
