<?xml version="1.0" encoding="utf-8"?>
<!-- Generator: Adobe Illustrator 25.4.2, SVG Export Plug-In . SVG Version: 6.00 Build 0)  -->
<svg version="1.1" id="Capa_1" xmlns="http://www.w3.org/2000/svg" xmlns:xlink="http://www.w3.org/1999/xlink" x="0px" y="0px"
	 viewBox="0 0 646.18 427.6" style="enable-background:new 0 0 646.18 427.6;" xml:space="preserve">
<style type="text/css">
	.st0{fill:none;stroke:#fff;stroke-width:6;stroke-linecap:round;stroke-linejoin:round;stroke-miterlimit:10;}
</style>
<g>
	<path class="st0" d="M310.42,155.07c-5.42,48.91-10.86,98.13-7.58,147.22c0.53,7.96,1.31,16.01,4.03,23.52
		c2.72,7.52,7.59,14.54,14.66,18.44c0.11-2.15,1.58-2.15,1.68,0c7.07-3.9,11.94-10.92,14.66-18.44c2.72-7.52,3.5-15.56,4.03-23.52
		c3.28-49.1-2.16-98.31-7.58-147.22"/>
	<path class="st0" d="M322.75,124.25c-6.65,0-12.54,2.32-15.95,7.47s-3.67,12.21-0.64,17.6c1.59,2.82,4.04,5.12,6.9,6.63
		c3.04,1.6,6.44,1.96,9.82,1.98c3.45,0.02,6.79-0.45,9.84-2.13c2.74-1.51,5.08-3.75,6.62-6.48c3.02-5.38,2.76-12.45-0.64-17.6
		C335.29,126.57,329.4,124.25,322.75,124.25"/>
	<path class="st0" d="M309.45,163.84C257.36,83.5,173.95,20.76,79.59,4.48c-15.34-2.65-31.39-4.1-46.27,0.48
		C18.45,9.55,4.93,21.39,2.43,36.76C0.43,49.1,5.66,61.57,12.86,71.8c7.19,10.22,16.36,18.92,23.8,28.96
		c12.74,17.19,20.15,38.27,20.97,59.65c0.68,17.84-3,36.41,3.27,53.13c6.33,16.88,22.2,28.92,39.42,34.29
		c17.22,5.36,35.72,4.84,53.62,2.64c51.55-6.34,104.29-26.9,151.56-48.41"/>
	<path class="st0" d="M119.39,252.63c-4.29,22.01-5.87,44.72-2.58,66.91c3.29,22.19,11.6,43.87,25.63,61.36
		c13.85,17.26,32.99,30.02,53.92,37.24s43.57,8.98,65.53,6.23c10.39-1.3,21.34-3.97,28.48-11.63c8.22-8.82,9.38-22.26,7.05-34.09
		c-2.33-11.83-7.6-22.86-10.74-34.5c-7.19-26.63,0.07-57.26,15.17-80.34"/>
	<path class="st0" d="M100.43,9.16c-13.59,5.1-22.9,19.82-21.67,34.28c0.45,5.37,2.19,10.83,0.82,16.05
		c-1.2,4.57-4.61,8.17-7.02,12.23c-5.51,9.29-5.52,21.57-0.04,30.87c2.01,3.42,4.76,6.59,5.42,10.5c0.64,3.79-0.8,7.58-1.52,11.36
		c-2.31,12.18,4.08,25.22,14.46,31.75c4.51,2.84,6.75,8.06,6.66,13.39c-0.12,7.3,1.75,14.64,5.46,20.93
		c4.04,6.86,10.24,12.41,17.44,15.8c4.34,2.05,7.5,5.96,8.5,10.66c3.09,14.53,17.51,27.29,31.49,32.51"/>
	<path class="st0" d="M161.07,249.5c-7.66,9.37-11.15,24.8-8.37,36.58c2.77,11.78,11.26,22.07,22.29,27.04
		c2.13,0.96,4.5,1.86,5.67,3.88c1.14,1.97,0.79,4.42,0.6,6.69c-0.83,9.76,2.39,20.27,10.08,26.33c5.55,4.38,12.86,6.05,19.93,6.01
		c2.75-0.02,5.48-0.28,8.19-0.68c5.97-0.89,12.09,2.3,14.41,7.88c2.08,4.98,5.81,9.37,10.36,12.34c7.58,4.95,17.04,6.37,26.06,5.61
		c9.02-0.76,18.41-1.36,25.87-7.91"/>
	<path class="st0" d="M172.89,53.82c-15.1-8.66-31.42-16.51-48.88-17.05c-5.25-0.16-10.62,0.37-15.41,2.48
		c-4.8,2.11-8.98,5.95-10.61,10.87c-2.19,6.6,0.53,14.01,5.15,19.25c4.62,5.24,10.89,8.74,17.03,12.13
		c16.37,9.05,32.74,18.1,49.11,27.16c26.69,14.76,53.4,29.53,80.75,43.06c6.66,3.3,13.38,6.52,20.34,9.17
		c4.7,1.78,14.98,6.96,19.81,4.15c8.8-5.13-12.86-25.13-16.91-29.68c-18.25-20.51-38.65-39.17-60.76-55.59
		C199.84,70.35,186.6,61.68,172.89,53.82z"/>
	<path class="st0" d="M209.57,189.32c-17.46,3.31-35.19,7.64-49.59,17.06c-3.29,2.15-6.46,4.64-8.27,7.9
		c-1.81,3.26-2.01,7.45,0.42,10.37c2.92,3.51,8.43,4.18,13.32,4.3c19.02,0.47,37.96-2.91,56.06-8.13s35.47-12.26,52.78-19.32
		c5.53-2.25,12.28-5.08,13.91-10.86c1.33-4.71-1.93-7.93-6.84-9.17c-6.47-1.63-14.24-0.01-20.77,0.61
		c-8.09,0.77-16.15,1.71-24.19,2.83C227.41,186.16,218.47,187.63,209.57,189.32z"/>
	<path class="st0" d="M178.88,137.71c-13.08-2.84-26.64-4.95-40.12-3.6c-5.24,0.52-10.53,1.6-15.04,3.99s-8.18,6.22-9.05,10.66
		c-1.15,5.94,2.95,11.86,8.63,15.32c5.69,3.46,12.73,4.91,19.64,5.99c22.81,3.56,45.74,3.03,68.8,2.36
		c7.62-0.22,16.33-0.3,23.43-3.26c4.93-2.06,6.92-5.69,3.88-10.11c-4.15-6.03-13.68-7.81-20.43-10.17
		C205.7,144.4,192.42,140.65,178.88,137.71z"/>
	<path class="st0" d="M218.71,257.33c-11.74,6.3-23.77,14.37-28.36,26.88c-1.85,5.04-2.33,10.67-0.75,15.8
		c1.58,5.13,5.34,9.67,10.33,11.64c8.53,3.36,18-1.15,25.74-6.05c18.35-11.62,34.85-26.33,47.98-43.66
		c3.24-4.27,6.26-8.7,9.06-13.27c1.85-3.03,7.65-10.29,6.41-13.95c-2.2-6.52-27.06,3.98-31.86,5.66
		C244,245.01,231.09,250.69,218.71,257.33z"/>
	<path class="st0" d="M252.29,318.14c-3.9,10.42-5.78,21.83-3.7,32.77c0.86,4.55,2.95,9.54,7.34,11c3.98,1.33,8.46-0.93,10.94-4.31
		c2.48-3.38,3.38-7.64,4.04-11.78c2.04-12.66,2.54-25.51,2.9-38.33c0.12-4.08-0.74-23.94-7.91-15.19
		C260.01,299.49,255.52,309.52,252.29,318.14z"/>
	<path class="st0" d="M336.73,163.84C388.82,83.5,472.23,20.76,566.58,4.48c15.34-2.65,31.39-4.1,46.27,0.48
		c14.88,4.58,28.4,16.42,30.9,31.79c2.01,12.34-3.23,24.82-10.42,35.04c-7.19,10.22-16.36,18.92-23.8,28.96
		c-12.74,17.19-20.15,38.27-20.97,59.65c-0.68,17.84,3,36.41-3.27,53.13c-6.33,16.88-22.2,28.92-39.42,34.29
		c-17.22,5.36-35.72,4.84-53.62,2.64c-51.55-6.34-104.29-26.9-151.56-48.41"/>
	<path class="st0" d="M526.79,252.63c4.29,22.01,5.87,44.72,2.58,66.91c-3.29,22.19-11.6,43.87-25.63,61.36
		c-13.85,17.26-32.99,30.02-53.92,37.24c-20.92,7.21-43.57,8.98-65.53,6.23c-10.39-1.3-21.34-3.97-28.48-11.63
		c-8.22-8.82-9.38-22.26-7.05-34.09c2.33-11.83,7.6-22.86,10.74-34.5c7.18-26.63-0.07-57.26-15.17-80.34"/>
	<path class="st0" d="M545.75,9.16c13.59,5.1,22.9,19.82,21.67,34.28c-0.45,5.37-2.19,10.83-0.82,16.05
		c1.2,4.57,4.61,8.17,7.02,12.23c5.51,9.29,5.52,21.57,0.04,30.87c-2.01,3.42-4.76,6.59-5.42,10.5c-0.64,3.79,0.8,7.58,1.52,11.36
		c2.31,12.18-4.08,25.22-14.46,31.75c-4.51,2.84-6.75,8.06-6.66,13.39c0.12,7.3-1.75,14.64-5.46,20.93
		c-4.04,6.86-10.24,12.41-17.44,15.8c-4.34,2.05-7.5,5.96-8.5,10.66c-3.09,14.53-17.51,27.29-31.49,32.51"/>
	<path class="st0" d="M485.1,249.5c7.66,9.37,11.15,24.8,8.37,36.58c-2.77,11.78-11.26,22.07-22.29,27.04
		c-2.13,0.96-4.5,1.86-5.67,3.88c-1.14,1.97-0.79,4.42-0.6,6.69c0.83,9.76-2.39,20.27-10.08,26.33c-5.55,4.38-12.86,6.05-19.93,6.01
		c-2.75-0.02-5.48-0.28-8.19-0.68c-5.97-0.89-12.09,2.3-14.41,7.88c-2.08,4.98-5.81,9.37-10.36,12.34
		c-7.58,4.95-17.04,6.37-26.06,5.61c-9.02-0.76-18.41-1.36-25.87-7.91"/>
	<path class="st0" d="M473.29,53.82c15.1-8.66,31.42-16.51,48.88-17.05c5.25-0.16,10.62,0.37,15.41,2.48
		c4.8,2.11,8.98,5.95,10.61,10.87c2.19,6.6-0.53,14.01-5.15,19.25c-4.62,5.24-10.89,8.74-17.03,12.13
		c-16.37,9.05-32.74,18.1-49.11,27.16c-26.69,14.76-53.4,29.53-80.75,43.06c-6.66,3.3-13.38,6.52-20.34,9.17
		c-4.7,1.78-14.98,6.96-19.81,4.15c-8.8-5.13,12.86-25.13,16.91-29.68c18.25-20.51,38.65-39.17,60.76-55.59
		C446.34,70.35,459.58,61.68,473.29,53.82z"/>
	<path class="st0" d="M436.61,189.32c17.46,3.31,35.19,7.64,49.59,17.06c3.29,2.15,6.46,4.64,8.27,7.9
		c1.81,3.26,2.01,7.45-0.42,10.37c-2.92,3.51-8.43,4.18-13.32,4.3c-19.02,0.47-37.96-2.91-56.06-8.13
		c-18.1-5.22-35.47-12.26-52.78-19.32c-5.53-2.25-12.28-5.08-13.91-10.86c-1.33-4.71,1.93-7.93,6.84-9.17
		c6.47-1.63,14.24-0.01,20.77,0.61c8.09,0.77,16.15,1.71,24.18,2.83C418.76,186.16,427.71,187.63,436.61,189.32z"/>
	<path class="st0" d="M467.3,137.71c13.08-2.84,26.64-4.95,40.12-3.6c5.24,0.52,10.53,1.6,15.04,3.99
		c4.51,2.38,8.18,6.22,9.04,10.66c1.15,5.94-2.95,11.86-8.63,15.32c-5.69,3.46-12.73,4.91-19.64,5.99
		c-22.81,3.56-45.74,3.03-68.8,2.36c-7.62-0.22-16.33-0.3-23.43-3.26c-4.93-2.06-6.92-5.69-3.88-10.11
		c4.15-6.03,13.68-7.81,20.43-10.17C440.47,144.4,453.76,140.65,467.3,137.71z"/>
	<path class="st0" d="M427.46,257.33c11.74,6.3,23.77,14.37,28.36,26.88c1.85,5.04,2.33,10.67,0.75,15.8
		c-1.58,5.13-5.34,9.67-10.33,11.64c-8.53,3.36-18-1.15-25.74-6.05c-18.35-11.62-34.85-26.33-47.98-43.66
		c-3.24-4.27-6.26-8.7-9.06-13.27c-1.85-3.03-7.65-10.29-6.41-13.95c2.2-6.52,27.06,3.98,31.86,5.66
		C402.18,245.01,415.08,250.69,427.46,257.33z"/>
	<path class="st0" d="M393.89,318.14c3.9,10.42,5.78,21.83,3.7,32.77c-0.86,4.55-2.95,9.54-7.34,11c-3.98,1.33-8.46-0.93-10.94-4.31
		c-2.48-3.38-3.38-7.64-4.04-11.78c-2.04-12.66-2.54-25.51-2.9-38.33c-0.12-4.08,0.74-23.94,7.91-15.19
		C386.16,299.49,390.66,309.52,393.89,318.14z"/>
	<path class="st0" d="M314.04,125.22c-0.98-12.14-2-24.45-6.2-35.88c-4.2-11.43-12.05-22.06-23.25-26.86
		c-7.2-3.08-16.31-3.26-22.15,1.94c-3.66,3.26-5.55,8.35-5.12,13.23c0.43,4.89,3.09,9.49,6.99,12.48c3.47,2.66,8.09,4.07,12.33,2.97
		c4.24-1.1,7.79-5.05,7.71-9.42c-0.08-4.38-4.46-8.39-8.74-7.46"/>
	<path class="st0" d="M331.46,125.22c0.98-12.14,2-24.45,6.2-35.88c4.2-11.43,12.05-22.06,23.25-26.86
		c7.2-3.08,16.31-3.26,22.15,1.94c3.66,3.26,5.55,8.35,5.12,13.23c-0.43,4.89-3.09,9.49-6.99,12.48c-3.47,2.66-8.09,4.07-12.33,2.97
		c-4.24-1.1-7.79-5.05-7.71-9.42c0.09-4.38,4.46-8.39,8.74-7.46"/>
</g>
</svg>
